HIERARCHY
ROOT Hips
{
 OFFSET 0.000000 0.000000 0.000000
 CHANNELS 6 Xposition Yposition Zposition Yrotation Xrotation Zrotation
 JOINT Chest
 {
  OFFSET 0.000000 9.585900 0.002600
  CHANNELS 3 Yrotation Xrotation Zrotation
  JOINT Chest2
  {
   OFFSET 0.000000 9.601200 -0.005300
   CHANNELS 3 Yrotation Xrotation Zrotation
   JOINT Chest3
   {
    OFFSET 0.000000 9.561800 0.000000
    CHANNELS 3 Yrotation Xrotation Zrotation
    JOINT Chest4
    {
     OFFSET 0.000000 9.552100 0.000000
     CHANNELS 3 Yrotation Xrotation Zrotation
     JOINT Neck
     {
      OFFSET 0.000000 14.453000 0.000000
      CHANNELS 3 Yrotation Xrotation Zrotation
      JOINT Head
      {
       OFFSET 0.000000 8.936500 -0.011300
       CHANNELS 3 Yrotation Xrotation Zrotation
       End Site
       {
        OFFSET 0.000000 17.073600 -0.006000
       }
      }
     }
     JOINT RightCollar
     {
      OFFSET -2.921100 9.558500 0.000000
      CHANNELS 3 Yrotation Xrotation Zrotation
      JOINT RightShoulder
      {
       OFFSET -13.519700 0.000000 0.000000
       CHANNELS 3 Yrotation Xrotation Zrotation
       JOINT RightElbow
       {
        OFFSET 0.000000 -29.696600 0.000000
        CHANNELS 3 Yrotation Xrotation Zrotation
        JOINT RightWrist
        {
         OFFSET 0.000000 -24.004700 0.000000
         CHANNELS 3 Yrotation Xrotation Zrotation
         End Site
         {
          OFFSET 0.000000 -17.728500 0.000000
         }
        }
       }
      }
     }
     JOINT LeftCollar
     {
      OFFSET 2.921100 9.558500 0.000000
      CHANNELS 3 Yrotation Xrotation Zrotation
      JOINT LeftShoulder
      {
       OFFSET 13.519700 0.000000 0.000000
       CHANNELS 3 Yrotation Xrotation Zrotation
       JOINT LeftElbow
       {
        OFFSET 0.000000 -29.696600 0.000000
        CHANNELS 3 Yrotation Xrotation Zrotation
        JOINT LeftWrist
        {
         OFFSET 0.000000 -24.004700 0.000000
         CHANNELS 3 Yrotation Xrotation Zrotation
         End Site
         {
          OFFSET 0.000000 -17.728500 0.000000
         }
        }
       }
      }
     }
    }
   }
  }
 }
 JOINT RightHip
 {
  OFFSET -7.771700 -0.012900 -0.001300
  CHANNELS 3 Yrotation Xrotation Zrotation
  JOINT RightKnee
  {
   OFFSET 0.000000 -40.869800 0.001200
   CHANNELS 3 Yrotation Xrotation Zrotation
   JOINT RightAnkle
   {
    OFFSET 0.000000 -39.717900 0.002100
    CHANNELS 3 Yrotation Xrotation Zrotation
    JOINT RightToe
    {
     OFFSET 0.000000 -4.965400 11.033500
     CHANNELS 3 Yrotation Xrotation Zrotation
     End Site
     {
      OFFSET 0.000000 -1.423100 5.872300
     }
    }
   }
  }
 }
 JOINT LeftHip
 {
  OFFSET 7.771700 -0.012900 -0.001300
  CHANNELS 3 Yrotation Xrotation Zrotation
  JOINT LeftKnee
  {
   OFFSET 0.000000 -40.869800 0.001200
   CHANNELS 3 Yrotation Xrotation Zrotation
   JOINT LeftAnkle
   {
    OFFSET 0.000000 -39.717900 0.002100
    CHANNELS 3 Yrotation Xrotation Zrotation
    JOINT LeftToe
    {
     OFFSET 0.000000 -4.965400 11.033500
     CHANNELS 3 Yrotation Xrotation Zrotation
     End Site
     {
      OFFSET 0.000000 -1.423100 5.872300
     }
    }
   }
  }
 }
}
MOTION
Frames: 8
Frame Time: 0.008333
0.000000 85.388000 0.000000 0.000000 -5.767877 0.000000 0.000000 11.653817 0.000000 0.000000 -5.885947 0.000000 0.000000 -0.000000 0.000000 0.000000 -0.000000 0.000000 0.000000 12.528835 0.000000 0.000000 0.711642 0.000000 0.000000 -0.000000 0.000000 0.000000 0.000000 -90.000000 0.000000 -2.309062 0.000000 0.000000 2.309062 0.000000 0.000000 -0.000000 0.000000 0.000000 -0.000000 90.000000 0.000000 -2.309062 0.000000 0.000000 2.309062 0.000000 0.000000 8.520406 0.000000 0.000000 1.905762 0.000000 -0.000000 -4.658285 0.000000 0.000000 -0.000000 0.000000 0.000000 8.520406 0.000000 0.000000 1.905762 0.000000 -0.000000 -4.658285 0.000000 0.000000 -0.000000 0.000000
-8.294693 56.027303 18.034862 -176.242332 -31.478854 -10.839178 -0.515969 14.380821 6.632929 -0.552330 8.262782 1.956881 -0.645257 10.330411 2.441461 -0.553456 8.273218 1.953175 1.223106 20.607882 -1.512735 1.650119 -3.824073 -1.892890 4.334292 -0.526699 -2.330422 -4.121607 -11.421179 0.514016 76.282181 -42.496977 -58.068560 9.516392 10.470609 -15.426967 -9.590026 -0.454729 -4.690721 -4.557059 -11.151753 2.092786 -74.630482 -36.319308 65.584426 -0.857576 3.223722 -0.586866 -19.706333 -27.516221 6.402848 58.996050 86.923667 57.701249 3.679625 -26.959799 -4.123605 -1.316419 3.075114 -0.599933 -10.963247 -43.723968 11.785432 178.274789 74.133407 176.111002 -1.802129 -25.606609 1.878133 -0.108226 -0.693711 -0.046990
-8.292862 56.027318 18.035555 -176.243620 -31.478677 -10.840669 -0.515758 14.375859 6.634811 -0.552117 8.264441 1.957480 -0.641417 10.328477 2.443025 -0.548831 8.262197 1.958213 1.217551 20.614845 -1.512763 1.644220 -3.816363 -1.891692 4.332202 -0.518680 -2.332684 -4.122157 -11.414304 0.505714 76.278658 -42.497508 -58.063695 9.514270 10.475866 -15.429433 -9.603698 -0.442274 -4.699028 -4.554981 -11.146475 2.097414 -74.639930 -36.324435 65.587824 -0.858547 3.233260 -0.580334 -19.705179 -27.516055 6.409614 58.958331 86.925527 57.662341 3.678289 -26.958289 -4.121789 -1.317280 3.074459 -0.599066 -10.966896 -43.724106 11.790300 178.275471 74.133134 176.110854 -1.795767 -25.606072 1.876912 -0.112460 -0.694399 -0.049770
-8.291557 56.027736 18.035697 -176.240724 -31.483009 -10.841076 -0.510910 14.372370 6.638185 -0.554666 8.266640 1.957338 -0.641036 10.328603 2.443025 -0.550724 8.263581 1.957867 1.217604 20.615337 -1.510508 1.639230 -3.814003 -1.890436 4.330306 -0.522852 -2.334086 -4.129780 -11.409666 0.506160 76.297435 -42.492995 -58.064797 9.516756 10.471696 -15.427725 -9.602105 -0.437916 -4.699025 -4.570870 -11.150953 2.108262 -74.644051 -36.332169 65.579471 -0.854994 3.248563 -0.567682 -19.704746 -27.511161 6.409338 58.929298 86.926553 57.632544 3.678716 -26.958372 -4.121453 -1.317635 3.074225 -0.598346 -10.966139 -43.719793 11.792845 178.282567 74.133684 176.115788 -1.799957 -25.603499 1.880042 -0.109803 -0.696710 -0.048921
-8.289892 56.027699 18.036974 -176.242669 -31.481511 -10.841534 -0.508016 14.369397 6.640319 -0.549722 8.262753 1.958677 -0.643535 10.329451 2.445178 -0.550605 8.264339 1.955691 1.217149 20.617008 -1.506830 1.635290 -3.813666 -1.889869 4.326307 -0.524128 -2.332928 -4.128136 -11.417008 0.511477 76.292565 -42.481565 -58.057962 9.512206 10.469587 -15.423899 -9.610607 -0.436578 -4.694813 -4.568155 -11.151560 2.105823 -74.644435 -36.324596 65.576530 -0.844994 3.251256 -0.564878 -19.702427 -27.512690 6.414342 58.885354 86.928379 57.588073 3.681775 -26.958177 -4.119385 -1.322570 3.075826 -0.600313 -10.965243 -43.722533 11.795840 178.255083 74.133319 176.092069 -1.806294 -25.600930 1.876176 -0.109013 -0.697872 -0.047091
-8.288693 56.027921 18.037979 -176.240235 -31.482541 -10.843453 -0.508350 14.369679 6.640953 -0.549716 8.262283 1.960154 -0.645439 10.330216 2.445808 -0.548602 8.262709 1.958200 1.215185 20.619013 -1.509128 1.640763 -3.809946 -1.891238 4.319273 -0.524114 -2.335805 -4.125474 -11.419245 0.512716 76.298386 -42.479097 -58.062119 9.503452 10.469355 -15.416464 -9.614888 -0.436798 -4.697021 -4.566824 -11.151270 2.105671 -74.677595 -36.315968 65.577038 -0.826849 3.277316 -0.546860 -19.701958 -27.511467 6.414344 58.879335 86.926829 57.585616 3.680619 -26.956480 -4.121320 -1.320635 3.074536 -0.599204 -10.966413 -43.722094 11.796772 178.249488 74.134022 176.088465 -1.805532 -25.598798 1.872985 -0.109532 -0.698161 -0.045962
-8.288640 56.028426 18.038497 -176.239754 -31.488437 -10.840371 -0.510570 14.374284 6.637357 -0.550354 8.262692 1.961378 -0.644839 10.331096 2.445534 -0.550332 8.262723 1.961392 1.216210 20.618779 -1.513085 1.642893 -3.811704 -1.891758 4.323118 -0.525925 -2.337606 -4.130049 -11.419912 0.511456 76.298625 -42.481979 -58.064232 9.498566 10.464247 -15.405477 -9.612710 -0.441440 -4.702173 -4.566936 -11.147184 2.108264 -74.681810 -36.310056 65.573921 -0.821808 3.273883 -0.545575 -19.699162 -27.507102 6.410822 58.862407 86.927707 57.565412 3.683862 -26.956574 -4.119594 -1.323333 3.073892 -0.599606 -10.960847 -43.716604 11.790375 178.241714 74.135537 176.081227 -1.805176 -25.595318 1.872107 -0.109067 -0.699897 -0.046658
-8.287996 56.028490 18.040073 -176.241283 -31.488438 -10.842504 -0.512529 14.370145 6.643804 -0.548153 8.264840 1.959537 -0.651032 10.332380 2.449465 -0.549740 8.262767 1.960146 1.218076 20.616249 -1.517363 1.642968 -3.814568 -1.892198 4.330602 -0.529231 -2.340430 -4.133930 -11.416235 0.507732 76.287555 -42.488160 -58.061767 9.499327 10.452285 -15.395698 -9.608537 -0.444418 -4.711560 -4.561663 -11.151493 2.111883 -74.718964 -36.300106 65.561494 -0.807195 3.294934 -0.522175 -19.702009 -27.504860 6.417512 58.834668 86.921886 57.530923 3.686793 -26.960658 -4.115176 -1.333484 3.080933 -0.604200 -10.958920 -43.717899 11.794215 178.218995 74.136098 176.061440 -1.811613 -25.592762 1.873282 -0.107351 -0.699128 -0.047731
